<?xml version="1.0" encoding="utf-8"?>
<!-- Generator: Adobe Illustrator 15.1.0, SVG Export Plug-In . SVG Version: 6.00 Build 0)  -->
<!DOCTYPE svg PUBLIC "-//W3C//DTD SVG 1.1//EN" "http://www.w3.org/Graphics/SVG/1.1/DTD/svg11.dtd">
<svg version="1.1" id="Layer_1" xmlns="http://www.w3.org/2000/svg" xmlns:xlink="http://www.w3.org/1999/xlink" x="0px" y="0px"
	 width="208.684px" height="103.947px" viewBox="0 0 208.684 103.947" enable-background="new 0 0 208.684 103.947"
	 xml:space="preserve">
<g>
	<g>
		<path fill="#05709D" d="M39.317,71.184c-5.32,0-11.22-2.086-15.39-5.465l2.804-3.956c4.029,3.021,8.485,4.747,12.874,4.747
			c4.46,0,7.695-2.303,7.695-5.897v-0.144c0-3.74-4.387-5.18-9.276-6.545c-5.825-1.653-12.298-3.667-12.298-10.5v-0.143
			c0-6.4,5.321-10.645,12.656-10.645c4.531,0,9.565,1.583,13.376,4.1l-2.516,4.17c-3.452-2.229-7.408-3.595-11.003-3.595
			c-4.388,0-7.192,2.302-7.192,5.394v0.143c0,3.524,4.602,4.893,9.564,6.401c5.752,1.725,11.939,3.955,11.939,10.646v0.144
			C52.552,67.084,46.726,71.184,39.317,71.184z"/>
		<g>
			<g>
				<path fill="#05709D" d="M57.607,17.966v64.006h38.021V17.966H57.607z M90.262,60.039c0,7.046-5.826,11.146-13.232,11.146
					c-5.322,0-11.22-2.086-15.392-5.465l2.806-3.956c4.027,3.021,8.485,4.747,12.873,4.747c4.457,0,7.694-2.303,7.694-5.897v-0.144
					c0-3.74-4.387-5.18-9.276-6.545c-5.824-1.653-12.297-3.667-12.297-10.5v-0.143c0-6.4,5.32-10.645,12.656-10.645
					c4.53,0,9.564,1.583,13.375,4.1l-2.516,4.17c-3.451-2.229-7.407-3.595-11.003-3.595c-4.387,0-7.192,2.302-7.192,5.394v0.143
					c0,3.524,4.604,4.893,9.566,6.401c5.753,1.725,11.938,3.955,11.938,10.646V60.039z"/>
			</g>
		</g>
		<path fill="#05709D" d="M131.898,70.465v-7.479c-3.019,4.457-7.407,8.27-14.24,8.27c-8.916,0-17.763-7.049-17.763-19.346
			c0-12.226,8.847-19.417,17.763-19.417c6.905,0,11.363,3.74,14.24,7.912V17.966h5.537v52.499H131.898z M118.664,37.457
			c-7.189,0-13.088,5.32-13.088,14.381c0,8.848,6.042,14.455,13.088,14.455c6.906,0,13.451-5.751,13.451-14.455
			C132.115,43.208,125.57,37.457,118.664,37.457z"/>
		<path fill="#05709D" d="M165.627,71.256c-6.902,0-11.362-3.74-14.239-7.91v18.626h-5.537V33.286h5.537v7.479
			c3.021-4.46,7.408-8.271,14.239-8.271c8.918,0,17.764,7.047,17.764,19.344C183.391,64.066,174.617,71.256,165.627,71.256z
			 M164.62,37.457c-6.903,0-13.447,5.752-13.447,14.381c0,8.704,6.544,14.455,13.447,14.455c7.191,0,13.09-5.32,13.09-14.382
			C177.71,43.067,171.669,37.457,164.62,37.457z"/>
	</g>
</g>
</svg>
