<?xml version="1.0" encoding="utf-8"?>
<!-- Generator: Adobe Illustrator 15.1.0, SVG Export Plug-In . SVG Version: 6.00 Build 0)  -->
<!DOCTYPE svg PUBLIC "-//W3C//DTD SVG 1.1//EN" "http://www.w3.org/Graphics/SVG/1.1/DTD/svg11.dtd">
<svg version="1.1" id="Layer_1" xmlns="http://www.w3.org/2000/svg" xmlns:xlink="http://www.w3.org/1999/xlink" x="0px" y="0px"
	 width="318.42px" height="103.947px" viewBox="0 0 318.42 103.947" enable-background="new 0 0 318.42 103.947"
	 xml:space="preserve">
<rect x="-8.316" y="-9.895" fill="#05709D" width="335" height="117"/>
<g>
	<g>
		<path fill="#FFFFFF" d="M39.317,71.184c-5.32,0-11.22-2.086-15.39-5.465l2.804-3.956c4.029,3.021,8.485,4.747,12.874,4.747
			c4.46,0,7.695-2.303,7.695-5.897v-0.144c0-3.74-4.387-5.18-9.276-6.545c-5.825-1.653-12.298-3.667-12.298-10.5v-0.143
			c0-6.4,5.321-10.645,12.656-10.645c4.531,0,9.565,1.583,13.376,4.1l-2.516,4.17c-3.452-2.229-7.408-3.595-11.003-3.595
			c-4.388,0-7.192,2.302-7.192,5.394v0.143c0,3.524,4.602,4.893,9.564,6.401c5.752,1.725,11.939,3.955,11.939,10.646v0.144
			C52.552,67.084,46.726,71.184,39.317,71.184z"/>
		<g>
			<g>
				<path fill="#FFFFFF" d="M57.607,17.966v64.006h38.021V17.966H57.607z M90.262,60.039c0,7.046-5.826,11.146-13.232,11.146
					c-5.322,0-11.22-2.086-15.392-5.465l2.806-3.956c4.027,3.021,8.485,4.747,12.873,4.747c4.457,0,7.694-2.303,7.694-5.897v-0.144
					c0-3.74-4.387-5.18-9.276-6.545c-5.824-1.653-12.297-3.667-12.297-10.5v-0.143c0-6.4,5.32-10.645,12.656-10.645
					c4.53,0,9.564,1.583,13.375,4.1l-2.516,4.17c-3.451-2.229-7.407-3.595-11.003-3.595c-4.387,0-7.192,2.302-7.192,5.394v0.143
					c0,3.524,4.604,4.893,9.566,6.401c5.753,1.725,11.938,3.955,11.938,10.646V60.039z"/>
			</g>
		</g>
		<path fill="#FFFFFF" d="M131.898,70.465v-7.479c-3.019,4.457-7.407,8.27-14.24,8.27c-8.916,0-17.763-7.049-17.763-19.346
			c0-12.226,8.847-19.417,17.763-19.417c6.905,0,11.363,3.74,14.24,7.912V17.966h5.537v52.499H131.898z M118.664,37.457
			c-7.189,0-13.088,5.32-13.088,14.381c0,8.848,6.042,14.455,13.088,14.455c6.906,0,13.451-5.751,13.451-14.455
			C132.115,43.208,125.57,37.457,118.664,37.457z"/>
		<path fill="#FFFFFF" d="M165.627,71.256c-6.902,0-11.362-3.74-14.239-7.91v18.626h-5.537V33.286h5.537v7.479
			c3.021-4.46,7.408-8.271,14.239-8.271c8.918,0,17.764,7.047,17.764,19.344C183.391,64.066,174.617,71.256,165.627,71.256z
			 M164.62,37.457c-6.903,0-13.447,5.752-13.447,14.381c0,8.704,6.544,14.455,13.447,14.455c7.191,0,13.09-5.32,13.09-14.382
			C177.71,43.067,171.669,37.457,164.62,37.457z"/>
	</g>
	<g>
		<g>
			<path fill="#FFFFFF" d="M200.486,35.565c-1.904,0-3.366-0.629-4.794-1.903l0.578-0.663c1.309,1.207,2.516,1.768,4.267,1.768
				c1.784,0,3.009-1.003,3.009-2.362V32.37c0-1.258-0.663-1.989-3.366-2.533c-2.855-0.578-4.012-1.547-4.012-3.349v-0.034
				c0-1.768,1.615-3.127,3.825-3.127c1.733,0,2.872,0.476,4.079,1.444l-0.561,0.697c-1.122-0.969-2.244-1.343-3.553-1.343
				c-1.751,0-2.907,1.003-2.907,2.243v0.034c0,1.258,0.646,2.022,3.468,2.601c2.754,0.562,3.91,1.547,3.91,3.281v0.033
				C204.429,34.239,202.78,35.565,200.486,35.565z"/>
			<path fill="#FFFFFF" d="M209.669,35.549c-1.343,0-2.431-0.731-2.431-2.38v-5.678h-1.258v-0.765h1.258v-2.771h0.833v2.771h3.042
				v0.765h-3.042v5.593c0,1.24,0.73,1.683,1.733,1.683c0.425,0,0.782-0.085,1.275-0.306v0.781
				C210.638,35.446,210.213,35.549,209.669,35.549z"/>
			<path fill="#FFFFFF" d="M219.793,35.396V33.78c-0.577,1.021-1.547,1.819-3.127,1.819c-2.193,0-3.468-1.496-3.468-3.569v-5.304
				h0.833v5.15c0,1.785,1.003,2.958,2.753,2.958c1.7,0,3.009-1.292,3.009-3.094v-5.015h0.833v8.669H219.793z"/>
			<path fill="#FFFFFF" d="M230.972,35.396v-1.938c-0.747,1.139-1.853,2.142-3.569,2.142c-2.091,0-4.216-1.683-4.216-4.505v-0.034
				c0-2.821,2.125-4.538,4.216-4.538c1.734,0,2.855,0.985,3.569,2.073v-5.609h0.833v12.409H230.972z M231.024,31.044
				c0-2.227-1.734-3.723-3.536-3.723c-1.887,0-3.399,1.377-3.399,3.706v0.033c0,2.278,1.581,3.74,3.399,3.74
				c1.802,0,3.536-1.513,3.536-3.723V31.044z"/>
			<path fill="#FFFFFF" d="M238.641,34.817c1.343,0,2.261-0.595,2.975-1.359l0.578,0.51c-0.884,0.952-1.921,1.632-3.587,1.632
				c-2.277,0-4.249-1.819-4.249-4.521v-0.034c0-2.516,1.768-4.521,4.113-4.521c2.431,0,3.978,1.972,3.978,4.538v0.034
				c0,0.119,0,0.17-0.017,0.307h-7.19C235.394,33.56,236.941,34.817,238.641,34.817z M241.547,30.653
				c-0.118-1.751-1.121-3.366-3.11-3.366c-1.717,0-3.043,1.445-3.195,3.366H241.547z"/>
			<path fill="#FFFFFF" d="M251.493,35.396v-5.15c0-1.785-1.003-2.958-2.753-2.958c-1.7,0-3.009,1.292-3.009,3.094v5.015h-0.833
				v-8.669h0.833v1.614c0.577-1.02,1.547-1.818,3.127-1.818c2.193,0,3.468,1.496,3.468,3.569v5.304H251.493z"/>
			<path fill="#FFFFFF" d="M257.919,35.549c-1.343,0-2.431-0.731-2.431-2.38v-5.678h-1.258v-0.765h1.258v-2.771h0.833v2.771h3.042
				v0.765h-3.042v5.593c0,1.24,0.73,1.683,1.733,1.683c0.425,0,0.782-0.085,1.275-0.306v0.781
				C258.888,35.446,258.463,35.549,257.919,35.549z"/>
			<path fill="#FFFFFF" d="M264.697,35.565c-1.258,0-2.635-0.51-3.553-1.258l0.493-0.663c0.951,0.731,2.006,1.139,3.11,1.139
				c1.173,0,2.091-0.646,2.091-1.648v-0.034c0-1.02-1.088-1.394-2.295-1.733c-1.411-0.408-2.975-0.833-2.975-2.38v-0.034
				c0-1.394,1.173-2.396,2.855-2.396c1.037,0,2.21,0.374,3.077,0.951l-0.442,0.697c-0.799-0.526-1.751-0.867-2.669-0.867
				c-1.189,0-1.972,0.646-1.972,1.514v0.033c0,0.97,1.173,1.326,2.414,1.684c1.394,0.391,2.855,0.9,2.855,2.431v0.034
				C267.688,34.58,266.363,35.565,264.697,35.565z"/>
			<path fill="#FFFFFF" d="M278.535,23.701c-1.19,0-1.751,0.714-1.751,2.192v0.833h3.025v0.765h-3.025v7.904h-0.833v-7.904h-1.258
				v-0.765h1.258v-0.85c0-1.87,0.952-2.941,2.584-2.941c0.526,0,0.9,0.068,1.292,0.204v0.782
				C279.333,23.769,278.976,23.701,278.535,23.701z"/>
			<path fill="#FFFFFF" d="M285.107,35.6c-2.567,0-4.437-2.074-4.437-4.505v-0.034c0-2.431,1.887-4.538,4.47-4.538
				c2.567,0,4.437,2.073,4.437,4.505v0.033C289.577,33.492,287.69,35.6,285.107,35.6z M288.676,31.061
				c0-2.091-1.563-3.756-3.569-3.756c-2.058,0-3.536,1.683-3.536,3.723v0.033c0,2.091,1.563,3.757,3.569,3.757
				c2.058,0,3.536-1.683,3.536-3.723V31.061z"/>
			<path fill="#FFFFFF" d="M296.69,27.508c-2.005,0-3.756,1.514-3.756,4.335v3.553h-0.833v-8.669h0.833v2.465
				c0.68-1.547,2.124-2.669,3.841-2.601v0.917H296.69z"/>
			<path fill="#FFFFFF" d="M200.486,55.565c-1.904,0-3.366-0.629-4.794-1.903l0.578-0.663c1.309,1.207,2.516,1.768,4.267,1.768
				c1.784,0,3.009-1.003,3.009-2.362V52.37c0-1.258-0.663-1.989-3.366-2.533c-2.855-0.578-4.012-1.547-4.012-3.349v-0.034
				c0-1.768,1.615-3.127,3.825-3.127c1.733,0,2.872,0.476,4.079,1.444l-0.561,0.697c-1.122-0.969-2.244-1.343-3.553-1.343
				c-1.751,0-2.907,1.003-2.907,2.243v0.034c0,1.258,0.646,2.022,3.468,2.601c2.754,0.562,3.91,1.547,3.91,3.281v0.033
				C204.429,54.239,202.78,55.565,200.486,55.565z"/>
			<path fill="#FFFFFF" d="M210.823,54.817c1.343,0,2.261-0.595,2.975-1.359l0.578,0.51c-0.884,0.952-1.921,1.632-3.587,1.632
				c-2.277,0-4.249-1.819-4.249-4.521v-0.034c0-2.516,1.768-4.521,4.113-4.521c2.431,0,3.978,1.972,3.978,4.538v0.034
				c0,0.119,0,0.17-0.017,0.307h-7.19C207.576,53.56,209.123,54.817,210.823,54.817z M213.729,50.653
				c-0.118-1.751-1.121-3.366-3.11-3.366c-1.717,0-3.043,1.445-3.195,3.366H213.729z"/>
			<path fill="#FFFFFF" d="M223.674,55.396v-5.15c0-1.785-1.003-2.958-2.753-2.958c-1.7,0-3.009,1.292-3.009,3.094v5.015h-0.833
				v-8.669h0.833v1.614c0.577-1.02,1.547-1.818,3.127-1.818c2.193,0,3.468,1.496,3.468,3.569v5.304H223.674z"/>
			<path fill="#FFFFFF" d="M230.17,55.565c-1.258,0-2.635-0.51-3.553-1.258l0.493-0.663c0.951,0.731,2.006,1.139,3.11,1.139
				c1.173,0,2.091-0.646,2.091-1.648v-0.034c0-1.02-1.088-1.394-2.295-1.733c-1.411-0.408-2.975-0.833-2.975-2.38v-0.034
				c0-1.394,1.173-2.396,2.855-2.396c1.037,0,2.21,0.374,3.077,0.951l-0.442,0.697c-0.799-0.526-1.751-0.867-2.668-0.867
				c-1.19,0-1.973,0.646-1.973,1.514v0.033c0,0.97,1.173,1.326,2.414,1.684c1.394,0.391,2.855,0.9,2.855,2.431v0.034
				C233.162,54.58,231.836,55.565,230.17,55.565z"/>
			<path fill="#FFFFFF" d="M235.561,44.466v-1.139h1.037v1.139H235.561z M235.664,55.396v-8.669h0.833v8.669H235.664z"/>
			<path fill="#FFFFFF" d="M244.008,55.6c-1.733,0-2.855-0.986-3.569-2.074v1.87h-0.833V42.986h0.833v5.678
				c0.748-1.139,1.853-2.142,3.569-2.142c2.091,0,4.216,1.683,4.216,4.505v0.033C248.224,53.883,246.099,55.6,244.008,55.6z
				 M247.323,51.061c0-2.277-1.581-3.739-3.399-3.739c-1.802,0-3.536,1.513-3.536,3.723v0.034c0,2.227,1.734,3.723,3.536,3.723
				c1.887,0,3.399-1.377,3.399-3.706V51.061z"/>
			<path fill="#FFFFFF" d="M250.844,55.396V42.986h0.833v12.409H250.844z"/>
			<path fill="#FFFFFF" d="M258.537,54.817c1.343,0,2.261-0.595,2.975-1.359l0.578,0.51c-0.884,0.952-1.921,1.632-3.587,1.632
				c-2.277,0-4.249-1.819-4.249-4.521v-0.034c0-2.516,1.768-4.521,4.113-4.521c2.431,0,3.978,1.972,3.978,4.538v0.034
				c0,0.119,0,0.17-0.017,0.307h-7.19C255.29,53.56,256.836,54.817,258.537,54.817z M261.443,50.653
				c-0.118-1.751-1.121-3.366-3.11-3.366c-1.717,0-3.043,1.445-3.195,3.366H261.443z"/>
			<path fill="#FFFFFF" d="M200.417,75.396h-3.961V63.497h3.961c3.739,0,6.323,2.566,6.323,5.915v0.034
				C206.741,72.795,204.157,75.396,200.417,75.396z M205.823,69.446c0-2.822-2.091-5.134-5.405-5.134h-3.077V74.58h3.077
				c3.314,0,5.405-2.262,5.405-5.1V69.446z"/>
			<path fill="#FFFFFF" d="M214.169,67.508c-2.005,0-3.756,1.514-3.756,4.335v3.553h-0.833v-8.669h0.833v2.465
				c0.68-1.547,2.124-2.669,3.842-2.601v0.917H214.169z"/>
			<path fill="#FFFFFF" d="M222.766,75.396V73.78c-0.577,1.021-1.547,1.819-3.127,1.819c-2.193,0-3.468-1.496-3.468-3.569v-5.304
				h0.833v5.15c0,1.785,1.003,2.958,2.753,2.958c1.7,0,3.009-1.292,3.009-3.094v-5.015h0.833v8.669H222.766z"/>
			<path fill="#FFFFFF" d="M230.471,78.149c-1.445,0-2.788-0.442-3.978-1.326l0.492-0.68c1.037,0.799,2.228,1.224,3.502,1.224
				c1.989,0,3.399-1.139,3.399-3.365v-1.258c-0.747,1.07-1.903,2.006-3.62,2.006c-2.091,0-4.165-1.599-4.165-4.08v-0.034
				c0-2.498,2.074-4.113,4.165-4.113c1.733,0,2.906,0.918,3.62,1.938v-1.733h0.833v7.326
				C234.72,76.688,232.936,78.149,230.471,78.149z M233.939,70.619c0-2.006-1.785-3.298-3.587-3.298
				c-1.819,0-3.349,1.258-3.349,3.28v0.034c0,1.955,1.563,3.314,3.349,3.314c1.802,0,3.587-1.325,3.587-3.297V70.619z"/>
			<path fill="#FFFFFF" d="M247.266,70.959h-3.213v4.437h-0.884V63.497h4.317c2.618,0,4.42,1.343,4.42,3.638v0.033
				C251.907,69.667,249.748,70.959,247.266,70.959z M251.023,67.186c0-1.887-1.462-2.873-3.604-2.873h-3.366v5.83h3.264
				c2.21,0,3.706-1.155,3.706-2.923V67.186z"/>
			<path fill="#FFFFFF" d="M257.942,75.6c-2.567,0-4.437-2.074-4.437-4.505v-0.034c0-2.431,1.887-4.538,4.47-4.538
				c2.567,0,4.437,2.073,4.437,4.505v0.033C262.412,73.492,260.525,75.6,257.942,75.6z M261.511,71.061
				c0-2.091-1.563-3.756-3.569-3.756c-2.058,0-3.536,1.683-3.536,3.723v0.033c0,2.091,1.563,3.757,3.569,3.757
				c2.058,0,3.536-1.683,3.536-3.723V71.061z"/>
			<path fill="#FFFFFF" d="M264.987,75.396V62.986h0.833v12.409H264.987z"/>
			<path fill="#FFFFFF" d="M268.877,64.466v-1.139h1.037v1.139H268.877z M268.98,75.396v-8.669h0.833v8.669H268.98z"/>
			<path fill="#FFFFFF" d="M276.744,75.6c-2.499,0-4.419-2.074-4.419-4.505v-0.034c0-2.431,1.938-4.538,4.419-4.538
				c1.632,0,2.652,0.748,3.468,1.598l-0.595,0.612c-0.748-0.766-1.598-1.428-2.89-1.428c-1.972,0-3.502,1.648-3.502,3.723v0.033
				c0,2.091,1.581,3.757,3.569,3.757c1.225,0,2.176-0.629,2.907-1.444l0.578,0.51C279.396,74.886,278.341,75.6,276.744,75.6z"/>
			<path fill="#FFFFFF" d="M286.505,75.701c-0.765,1.819-1.648,2.465-2.89,2.465c-0.663,0-1.139-0.119-1.717-0.374l0.289-0.73
				c0.459,0.221,0.833,0.323,1.479,0.323c0.901,0,1.496-0.527,2.142-2.04l-4.164-8.618h0.969l3.604,7.751l3.128-7.751h0.918
				L286.505,75.701z"/>
		</g>
	</g>
</g>
</svg>
